<?xml version="1.0" encoding="UTF-8" standalone="no"?>
<!-- Created with Inkscape (http://www.inkscape.org/) -->

<svg
   xmlns:dc="http://purl.org/dc/elements/1.1/"
   xmlns:cc="http://creativecommons.org/ns#"
   xmlns:rdf="http://www.w3.org/1999/02/22-rdf-syntax-ns#"
   xmlns:svg="http://www.w3.org/2000/svg"
   xmlns="http://www.w3.org/2000/svg"
   version="1.1"
   width="60"
   height="60"
   id="svg2">
  <defs
     id="defs4" />
  <metadata
     id="metadata7">
    <rdf:RDF>
      <cc:Work
         rdf:about="">
        <dc:format>image/svg+xml</dc:format>
        <dc:type
           rdf:resource="http://purl.org/dc/dcmitype/StillImage" />
        <dc:title></dc:title>
      </cc:Work>
    </rdf:RDF>
  </metadata>
  <g
     transform="translate(0,-992.36218)"
     id="layer1">
    <path
       d="m 25.454546,1017.9466 c -1.17798,-3.4332 -3.411687,-6.2632 -7.012987,-8.3117 3.809524,-9.82135 7.619047,-8.0408 11.428571,-9.0909 5.846711,1.1703 8.741653,5.5876 11.168831,10.5195 -3.275594,0.01 -11.698678,6.382 -10.64935,8.1818 3.43169,-0.047 9.102863,0.2413 9.610389,1.8182 1.387299,6.8896 0.865984,10.8349 3.896104,16.6234 l -4.155844,1.0389 c -1.709536,-2.7748 -3.310974,-6.6305 -4.675325,-12.8571 l 1.038961,16.1039 c -5.174419,-0.2941 -10.891728,-1.4026 -16.753246,-2.7273 l 1.688311,-15.1948 c -0.995671,4.1991 -3.55317,3.4293 -4.155844,11.5584 l -6.493507,-5.5844 c 2.943723,-4.632 2.524756,-0.1119 7.012987,-11.4286 1.531261,-1.8539 5.899122,-1.5924 8.051949,-0.6493 z"
       id="path3760"
       style="fill:none;stroke:#000000;stroke-width:1px;stroke-linecap:butt;stroke-linejoin:miter;stroke-opacity:1" />
    <path
       d="m 20.779221,47.662338 c -1.353902,2.652603 -1.289293,3.886695 -1.298702,5.194805 3.966766,2.483451 8.644598,4.255836 17.402598,1.948052 L 34.675325,49.87013 z"
       transform="translate(0,992.36218)"
       id="path3762"
       style="fill:none;stroke:#000000;stroke-width:1px;stroke-linecap:butt;stroke-linejoin:miter;stroke-opacity:1" />
    <path
       d="m 30,995.67468 c -14.811273,0 -26.8125,11.94792 -26.8125,26.68752 0,14.7395 12.001227,26.6875 26.8125,26.6875 14.811273,0 26.8125,-11.948 26.8125,-26.6875 0,-14.7396 -12.001227,-26.68752 -26.8125,-26.68752 z m 0,1.96875 c 13.710701,0 24.8125,11.07447 24.8125,24.71877 0,13.6443 -11.101799,24.7187 -24.8125,24.7187 -13.710701,0 -24.8125,-11.0744 -24.8125,-24.7187 0,-13.6443 11.101799,-24.71877 24.8125,-24.71877 z"
       id="path2985"
       style="fill:#3c948b;fill-opacity:1;stroke:#2f877e;stroke-width:0.2;stroke-linecap:butt;stroke-linejoin:miter;stroke-miterlimit:4;stroke-opacity:1;stroke-dasharray:none;stroke-dashoffset:0" />
  </g>
</svg>
